<svg width="64" height="64" viewBox="0 0 64 64" xmlns="http://www.w3.org/2000/svg">
  <!-- Pillars -->
  <rect x="18" y="12" width="6" height="48" rx="1" fill="#cc3300" />
  <rect x="40" y="12" width="6" height="48" rx="1" fill="#cc3300" />
  
  <!-- Lower Lintel (Nuki) -->
  <rect x="14" y="24" width="36" height="5" rx="1" fill="#cc3300" />
  
  <!-- Top Lintel (Kasagi/Shimaki) - Curved style -->
  <path d="M6 14 C 6 14, 15 10, 32 10 C 49 10, 58 14, 58 14 L 58 20 C 58 20, 49 16, 32 16 C 15 16, 6 20, 6 20 Z" fill="#333333" />
  <path d="M8 19 C 8 19, 16 16, 32 16 C 48 16, 56 19, 56 19 L 56 21 L 8 21 Z" fill="#cc3300" />
  
  <!-- Gaku (Center Plaque) -->
  <rect x="29" y="13" width="6" height="7" fill="#333333" />
</svg>
